<?xml version="1.0" encoding="utf-8"?>
<!-- Generator: Adobe Illustrator 23.0.3, SVG Export Plug-In . SVG Version: 6.00 Build 0)  -->
<svg version="1.1" id="Layer_1" xmlns="http://www.w3.org/2000/svg" xmlns:xlink="http://www.w3.org/1999/xlink" x="0px" y="0px"
	 viewBox="0 0 548 320" style="enable-background:new 0 0 548 320;" xml:space="preserve">
<style type="text/css">
	.st0{fill:#1D1D2A;}
	.st1{fill:#FFFFFF;}
	.st2{fill:#CDCDCD;}
	.st3{fill:none;stroke:#33C668;stroke-width:6;stroke-linecap:round;stroke-linejoin:round;}
</style>
<g>
	<g>
		<defs>
			<polygon id="SVGID_1_" points="-6.5,-6.5 -5.5,-6.5 -6.5,-5.5 			"/>
		</defs>
		<clipPath id="SVGID_2_">
			<use xlink:href="#SVGID_1_"  style="overflow:visible;"/>
		</clipPath>
	</g>
</g>
<g>
	<g>
		<path class="st0" d="M39.2,15.1h409.7c12.9,0,23.3,10.4,23.3,23.3v67.3c0,12.9-10.4,23.3-23.3,23.3H39.2
			c-12.9,0-23.3-10.4-23.3-23.3V38.4C15.9,25.6,26.3,15.1,39.2,15.1z"/>
	</g>
	<path class="st1" d="M127.3,51.5c0.1,1.4-0.6,2.8-1.7,3.7c-1.3,1-3,1.4-4.6,1.3c-1.7,0-3.3-0.3-4.8-1V52c0.9,0.5,1.9,0.8,2.8,1.1
		c0.7,0.2,1.4,0.3,2.2,0.3c0.6,0,1.3-0.1,1.8-0.5c0.4-0.3,0.7-0.8,0.6-1.4c0-0.3-0.1-0.6-0.3-0.9c-0.2-0.3-0.5-0.6-0.8-0.8
		c-0.7-0.4-1.5-0.8-2.2-1.2c-0.8-0.4-1.6-0.8-2.3-1.4c-0.5-0.4-0.9-1-1.3-1.6c-0.3-0.7-0.5-1.4-0.5-2.1c-0.1-1.4,0.5-2.7,1.5-3.6
		c1.2-0.9,2.7-1.4,4.3-1.3c0.9,0,1.7,0.1,2.6,0.3s1.7,0.5,2.5,0.9l-1.2,2.8c-0.7-0.3-1.5-0.6-2.3-0.8c-0.6-0.1-1.2-0.2-1.8-0.2
		c-0.6,0-1.1,0.1-1.6,0.5c-0.4,0.3-0.6,0.8-0.6,1.3c0,0.3,0.1,0.6,0.2,0.8c0.2,0.3,0.4,0.5,0.7,0.7c0.7,0.4,1.5,0.9,2.3,1.2
		c1.3,0.5,2.4,1.3,3.3,2.3C127,49.4,127.3,50.4,127.3,51.5z"/>
	<path class="st1" d="M139.4,56.2l-0.5-1.7h-0.2c-0.4,0.6-1,1.1-1.6,1.5c-0.8,0.3-1.6,0.5-2.4,0.5c-1.3,0.1-2.5-0.4-3.5-1.2
		c-0.9-1-1.3-2.3-1.2-3.6v-8.5h3.6v7.7c0,0.7,0.1,1.5,0.5,2.1c0.4,0.5,1,0.8,1.6,0.7c0.8,0.1,1.7-0.3,2.2-1c0.5-1,0.7-2.2,0.7-3.3
		v-6.2h3.6v13.1h-2.8L139.4,56.2L139.4,56.2z"/>
	<path class="st1" d="M151.2,56.5c-4.1,0-6.1-2.2-6.1-6.7c-0.1-1.9,0.5-3.7,1.7-5.1c1.3-1.2,3-1.9,4.8-1.8c1.4,0,2.8,0.3,4.1,0.9
		l-1.1,2.8c-0.6-0.2-1.1-0.4-1.6-0.5s-1-0.2-1.5-0.2c-1.9,0-2.8,1.3-2.8,4s0.9,3.9,2.8,3.8c0.6,0,1.3-0.1,1.9-0.3
		c0.6-0.2,1.2-0.5,1.8-0.9v3.1c-0.5,0.3-1.1,0.6-1.8,0.8C152.7,56.4,151.9,56.5,151.2,56.5z"/>
	<path class="st1" d="M163.5,56.5c-4.1,0-6.1-2.2-6.1-6.7c-0.1-1.9,0.5-3.7,1.7-5.1c1.3-1.2,3-1.9,4.8-1.8c1.4,0,2.8,0.3,4.1,0.9
		l-1,2.8c-0.6-0.2-1.1-0.4-1.6-0.5s-1-0.2-1.5-0.2c-1.9,0-2.8,1.3-2.8,4s0.9,3.9,2.8,3.8c0.6,0,1.3-0.1,1.9-0.3
		c0.6-0.2,1.2-0.5,1.8-0.9v3.1c-0.5,0.3-1.1,0.6-1.8,0.8C165.1,56.4,164.3,56.5,163.5,56.5z"/>
	<path class="st1" d="M176.5,56.5c-1.8,0.1-3.6-0.5-4.9-1.8c-1.3-1.3-1.9-3.1-1.8-4.9c-0.1-1.8,0.5-3.7,1.6-5.1
		c1.2-1.2,2.8-1.9,4.6-1.8c1.6-0.1,3.2,0.5,4.3,1.6c1.1,1.2,1.6,2.8,1.6,4.4v1.7h-8.4c0,0.9,0.3,1.7,0.9,2.4
		c0.6,0.6,1.5,0.9,2.4,0.9c0.8,0,1.5-0.1,2.2-0.3c0.8-0.2,1.5-0.4,2.2-0.8v2.8c-0.6,0.3-1.3,0.6-2,0.7
		C178.2,56.4,177.4,56.5,176.5,56.5z M176,45.5c-0.7,0-1.3,0.2-1.8,0.7c-0.5,0.6-0.7,1.3-0.7,2h5c0-0.7-0.2-1.4-0.7-2
		C177.3,45.7,176.7,45.4,176,45.5L176,45.5z"/>
	<path class="st1" d="M193.9,52.3c0.1,1.2-0.5,2.3-1.4,3.1c-1.2,0.8-2.7,1.2-4.2,1.1c-0.8,0-1.6-0.1-2.4-0.2
		c-0.6-0.1-1.3-0.3-1.9-0.6v-3c0.7,0.3,1.5,0.6,2.3,0.8c0.7,0.2,1.4,0.3,2.2,0.3c1.3,0,2-0.4,2-1.1c0-0.3-0.1-0.5-0.3-0.7
		c-0.3-0.2-0.6-0.4-0.9-0.6c-0.5-0.3-1.1-0.6-1.7-0.8c-0.8-0.3-1.5-0.7-2.2-1.2c-0.4-0.3-0.8-0.8-1-1.2c-0.2-0.5-0.3-1.1-0.3-1.7
		c0-1.1,0.5-2.1,1.4-2.7c1.1-0.7,2.5-1.1,3.8-1c1.6,0,3.2,0.3,4.6,1l-1.1,2.6c-0.6-0.3-1.2-0.5-1.8-0.7s-1.2-0.3-1.8-0.3
		c-1.1,0-1.6,0.3-1.6,0.8c0,0.3,0.2,0.7,0.5,0.8c0.7,0.4,1.5,0.7,2.2,1c0.8,0.3,1.6,0.7,2.3,1.2c0.4,0.3,0.8,0.7,1.1,1.2
		C193.8,51.1,193.9,51.7,193.9,52.3z"/>
	<path class="st1" d="M205.8,52.3c0.1,1.2-0.5,2.3-1.4,3.1c-1.2,0.8-2.7,1.2-4.2,1.1c-0.8,0-1.6-0.1-2.4-0.2
		c-0.6-0.1-1.3-0.3-1.9-0.6v-3c0.7,0.3,1.5,0.6,2.3,0.8c0.7,0.2,1.4,0.3,2.2,0.3c1.3,0,2-0.4,2-1.1c0-0.3-0.1-0.5-0.3-0.7
		c-0.3-0.2-0.6-0.4-0.9-0.6c-0.5-0.3-1.1-0.6-1.7-0.8c-0.8-0.3-1.5-0.7-2.2-1.2c-0.4-0.3-0.8-0.8-1-1.2c-0.2-0.5-0.3-1.1-0.3-1.7
		c0-1.1,0.5-2.1,1.4-2.7c1.1-0.7,2.5-1.1,3.8-1c1.6,0,3.2,0.3,4.6,1l-1.1,2.6c-0.6-0.3-1.2-0.5-1.8-0.7s-1.2-0.3-1.8-0.3
		c-1.1,0-1.6,0.3-1.6,0.8c0,0.3,0.2,0.7,0.5,0.8c0.7,0.4,1.5,0.7,2.2,1c0.8,0.3,1.6,0.7,2.3,1.2c0.4,0.3,0.8,0.7,1.1,1.2
		C205.7,51.1,205.8,51.7,205.8,52.3z"/>
	<path class="st1" d="M215.8,45.8h-3.1v10.4h-3.6V45.8h-2v-1.7l2-1v-1c-0.1-1.2,0.3-2.4,1.1-3.3c1-0.8,2.3-1.1,3.5-1
		c1.1,0,2.2,0.2,3.3,0.5l-0.9,2.7c-0.6-0.2-1.3-0.3-2-0.3c-0.4,0-0.8,0.1-1.1,0.5c-0.2,0.3-0.4,0.7-0.3,1.2v0.8h3.1V45.8z"/>
	<path class="st1" d="M227.2,56.2l-0.5-1.7h-0.2c-0.4,0.6-1,1.1-1.6,1.5c-0.8,0.3-1.6,0.5-2.4,0.5c-1.3,0.1-2.5-0.4-3.5-1.3
		c-0.8-1-1.3-2.3-1.2-3.5v-8.5h3.6v7.7c-0.1,0.7,0.1,1.5,0.5,2.1c0.4,0.5,1,0.8,1.6,0.7c0.8,0.1,1.7-0.3,2.2-1
		c0.5-1,0.8-2.2,0.7-3.3v-6.2h3.6v13.1h-2.8L227.2,56.2L227.2,56.2z"/>
	<path class="st1" d="M237.2,56.2h-3.6V38h3.6V56.2z"/>
	<path class="st1" d="M244.6,56.2H241V38h3.6V56.2z"/>
	<path class="st1" d="M246.4,43.1h3.9l2.5,7.4c0.2,0.7,0.4,1.5,0.4,2.3h0.1c0.1-0.8,0.2-1.5,0.5-2.3l2.4-7.4h3.8l-5.5,14.8
		c-0.4,1.2-1.2,2.3-2.2,3.1c-1,0.7-2.1,1-3.3,1c-0.6,0-1.2-0.1-1.8-0.2v-2.9c0.5,0.1,0.9,0.2,1.4,0.2c0.6,0,1.2-0.2,1.7-0.6
		c0.5-0.5,0.9-1.1,1.1-1.8l0.2-0.7L246.4,43.1z"/>
	<path class="st1" d="M275.8,41.9c-1.3-0.1-2.4,0.5-3.2,1.5c-0.8,1.3-1.2,2.8-1.1,4.3c0,3.8,1.4,5.7,4.3,5.7c1.5-0.1,3-0.4,4.4-0.9
		v3c-1.5,0.6-3.1,0.9-4.7,0.9c-2.2,0.1-4.3-0.7-5.7-2.3c-1.3-1.5-2-3.7-2-6.5c0-1.6,0.3-3.2,1-4.7c0.6-1.3,1.6-2.4,2.8-3.1
		c1.3-0.7,2.8-1.1,4.3-1.1c1.7,0,3.4,0.4,5,1.2l-1.2,3c-0.6-0.3-1.3-0.6-1.9-0.8C277,42,276.4,41.9,275.8,41.9z"/>
	<path class="st1" d="M295.6,56.2H292v-7.6c0-1.9-0.7-2.8-2.1-2.8c-0.8-0.1-1.7,0.3-2.2,1c-0.5,1-0.8,2.2-0.7,3.3v6.2h-3.6V38h3.6
		v3.7c0,0.3,0,1-0.1,2l-0.1,1.1h0.2c0.8-1.3,2.3-2,3.8-1.9c1.3-0.1,2.6,0.4,3.5,1.2c0.9,1,1.3,2.3,1.2,3.6v8.5
		C295.5,56.2,295.6,56.2,295.6,56.2z"/>
	<path class="st1" d="M305.2,56.5c-1.8,0.1-3.6-0.5-4.9-1.8s-1.9-3.1-1.8-4.9c-0.1-1.8,0.5-3.7,1.6-5.1c1.2-1.2,2.9-1.9,4.6-1.8
		c1.6-0.1,3.2,0.5,4.3,1.6c1.1,1.2,1.6,2.8,1.5,4.4v1.7H302c0,0.9,0.3,1.7,0.9,2.4c0.6,0.6,1.5,0.9,2.4,0.9c0.8,0,1.5-0.1,2.2-0.3
		c0.8-0.2,1.5-0.4,2.2-0.8v2.8c-0.6,0.3-1.3,0.6-2,0.7C306.9,56.4,306.1,56.5,305.2,56.5z M304.7,45.5c-0.7,0-1.3,0.2-1.8,0.7
		c-0.5,0.6-0.7,1.3-0.7,2h5c0-0.7-0.2-1.4-0.7-2C306,45.7,305.4,45.4,304.7,45.5L304.7,45.5z"/>
	<path class="st1" d="M318.8,56.5c-4.1,0-6.1-2.2-6.1-6.7c-0.1-1.9,0.5-3.7,1.7-5.1c1.3-1.2,3-1.9,4.8-1.8c1.4,0,2.8,0.3,4.1,0.9
		l-1.1,2.8c-0.6-0.2-1.1-0.4-1.6-0.5s-1-0.2-1.5-0.2c-1.9,0-2.8,1.3-2.8,4s0.9,3.9,2.8,3.8c0.6,0,1.3-0.1,1.9-0.3s1.2-0.5,1.8-0.9
		v3.1c-0.5,0.3-1.1,0.6-1.8,0.8C320.3,56.4,319.5,56.5,318.8,56.5z"/>
	<path class="st1" d="M329.2,49.1l1.6-2l3.7-4h4l-5.2,5.7l5.5,7.4h-4.1l-3.8-5.3l-1.5,1.2v4.1h-3.6V38h3.6v8.1L329.2,49.1
		L329.2,49.1z"/>
	<path class="st1" d="M346.6,56.5c-1.8,0.1-3.6-0.5-5-1.8c-1.3-1.3-1.9-3.1-1.8-4.9c-0.1-1.8,0.5-3.7,1.6-5.1
		c1.2-1.2,2.8-1.9,4.5-1.8c1.6-0.1,3.2,0.5,4.3,1.6c1.1,1.2,1.6,2.8,1.5,4.4v1.7h-8.5c0,0.9,0.3,1.7,0.9,2.4
		c0.6,0.6,1.5,0.9,2.4,0.9c0.8,0,1.5-0.1,2.2-0.3c0.8-0.2,1.5-0.4,2.2-0.8v2.8c-0.6,0.3-1.3,0.6-2,0.7
		C348.3,56.4,347.5,56.5,346.6,56.5z M346.1,45.5c-0.7,0-1.3,0.2-1.8,0.7c-0.5,0.6-0.7,1.3-0.7,2h5c0-0.7-0.2-1.4-0.7-2
		C347.4,45.7,346.8,45.4,346.1,45.5L346.1,45.5z"/>
	<path class="st1" d="M359,56.5c-1.4,0-2.8-0.6-3.6-1.8c-1-1.5-1.4-3.2-1.3-5c-0.1-1.8,0.4-3.5,1.3-5c0.9-1.2,2.2-1.9,3.7-1.8
		c1.5-0.1,2.9,0.7,3.8,1.9h0.1c-0.2-0.9-0.3-1.7-0.3-2.6V38h3.6v18.2h-2.8l-0.7-1.7h-0.1C361.9,55.8,360.5,56.5,359,56.5z
		 M360.3,53.6c0.8,0.1,1.5-0.2,2-0.8c0.5-0.8,0.7-1.7,0.7-2.7v-0.4c0.1-1-0.1-2.1-0.7-3c-0.5-0.6-1.3-1-2.1-0.9
		c-0.8,0-1.5,0.4-1.9,1c-0.5,0.9-0.7,1.9-0.7,2.9c-0.1,1,0.2,2,0.7,2.9C358.8,53.3,359.5,53.6,360.3,53.6L360.3,53.6z"/>
	<path class="st1" d="M392.1,47.6c0,2.8-0.7,5-2.1,6.5c-3.5,3.1-8.6,3.1-12.1,0c-1.4-1.5-2.1-3.7-2.1-6.6s0.7-5,2.1-6.5
		c1.6-1.6,3.8-2.4,6.1-2.3c2.2-0.1,4.4,0.7,6,2.3C391.4,42.6,392.1,44.8,392.1,47.6z M379.6,47.6c-0.1,1.5,0.3,3.1,1.1,4.4
		c0.8,1,2,1.5,3.3,1.5c2.9,0,4.4-1.9,4.4-5.8s-1.4-5.8-4.3-5.8c-1.3-0.1-2.5,0.5-3.3,1.5C379.9,44.6,379.5,46.1,379.6,47.6z"/>
	<path class="st1" d="M404.6,56.2l-0.5-1.7H404c-0.4,0.6-1,1.2-1.7,1.5c-0.8,0.3-1.6,0.5-2.4,0.5c-1.3,0.1-2.5-0.4-3.5-1.2
		c-0.8-1-1.3-2.3-1.2-3.5v-8.6h3.6v7.7c-0.1,0.7,0.1,1.5,0.5,2.1c0.4,0.5,1,0.8,1.6,0.7c0.8,0.1,1.7-0.3,2.2-1
		c0.5-1,0.8-2.2,0.7-3.3v-6.2h3.6v13.1L404.6,56.2L404.6,56.2z"/>
	<path class="st1" d="M416.6,53.6c0.8,0,1.5-0.2,2.3-0.4v2.7c-1,0.4-2.2,0.6-3.3,0.6c-1.1,0.1-2.3-0.3-3.1-1.1
		c-0.7-0.9-1.1-2.1-1-3.3v-6.3h-1.7v-1.5l2-1.2l1-2.8h2.3v2.8h3.7v2.7h-3.7v6.3c0,0.4,0.1,0.8,0.4,1.1
		C415.8,53.5,416.2,53.6,416.6,53.6z"/>
	<path class="st2" d="M125.3,80h-2.1l-5.3-8.5h-0.1V72c0.1,0.9,0.1,1.7,0.1,2.5V80h-1.6V69.3h2.1l5.3,8.5l0,0c0-0.1,0-0.5-0.1-1.2
		c0-0.7,0-1.3,0-1.7v-5.6h1.6L125.3,80z"/>
	<path class="st2" d="M127.9,69.7c0-0.3,0.1-0.5,0.3-0.7c0.4-0.3,1-0.3,1.4,0c0.2,0.2,0.3,0.4,0.3,0.7c0,0.3-0.1,0.5-0.3,0.7
		c-0.4,0.3-1,0.3-1.4,0C128,70.2,127.9,70,127.9,69.7z M129.7,80H128v-8.1h1.7V80z"/>
	<path class="st2" d="M133.8,75.7l1-1.2l2.4-2.6h2l-3.3,3.5l3.4,4.6h-2l-2.6-3.6l-0.9,0.8V80h-1.7V68.6h1.7v5.6L133.8,75.7
		L133.8,75.7z"/>
	<path class="st2" d="M144.3,80.1c-1.1,0.1-2.2-0.3-3-1.1c-0.7-0.8-1.1-1.9-1.1-3c-0.1-1.1,0.3-2.2,1-3.1c0.7-0.8,1.7-1.2,2.8-1.2
		c0.9,0,1.9,0.3,2.5,1c0.7,0.7,1,1.7,0.9,2.7v0.9H142c0,0.7,0.2,1.3,0.6,1.8c0.5,0.4,1.1,0.7,1.7,0.6c0.4,0,0.9,0,1.3-0.1
		c0.5-0.1,0.9-0.3,1.3-0.4v1.4c-0.4,0.2-0.8,0.3-1.3,0.4C145.2,80.1,144.8,80.1,144.3,80.1z M144,73c-0.5,0-1,0.2-1.3,0.5
		c-0.4,0.4-0.6,1-0.6,1.5h3.7c0-0.5-0.1-1.1-0.5-1.5C145,73.2,144.5,73,144,73z"/>
	<path class="st2" d="M155.1,75.8l-2.7-4h2l1.9,2.8l1.8-2.8h2l-2.7,4l2.8,4.1h-2l-2-3l-2,3h-2L155.1,75.8z"/>
	<path class="st2" d="M175.1,74.6c0.1,1.5-0.4,2.9-1.3,4.1c-2.1,1.9-5.3,1.9-7.4,0c-0.9-1.2-1.4-2.6-1.3-4.1
		c-0.1-1.5,0.4-2.9,1.3-4.1c1-1,2.3-1.5,3.7-1.4c1.4-0.1,2.7,0.4,3.7,1.4C174.8,71.7,175.2,73.1,175.1,74.6z M166.9,74.6
		c-0.1,1.1,0.2,2.1,0.8,3c1.2,1.3,3.3,1.4,4.6,0.1l0.1-0.1c0.6-0.9,0.9-1.9,0.8-3c0.1-1.1-0.2-2.1-0.8-3c-0.6-0.7-1.5-1.1-2.4-1
		c-0.9-0.1-1.8,0.3-2.4,1C167.2,72.5,166.9,73.6,166.9,74.6L166.9,74.6z"/>
	<path class="st2" d="M181.3,73.2h-2V80h-1.7v-6.8h-1.3v-0.8l1.3-0.5v-0.5c-0.1-0.8,0.2-1.5,0.7-2.1c0.6-0.5,1.3-0.8,2.1-0.7
		c0.6,0,1.2,0.1,1.8,0.3l-0.4,1.3c-0.4-0.1-0.8-0.2-1.2-0.2c-0.3,0-0.6,0.1-0.9,0.4c-0.2,0.3-0.3,0.7-0.3,1.1V72h2L181.3,73.2z
		 M186.8,73.2h-2V80H183v-6.8h-1.3v-0.8l1.3-0.5v-0.5c-0.1-0.8,0.2-1.5,0.7-2.1c0.6-0.5,1.3-0.7,2.1-0.7c0.6,0,1.2,0.1,1.8,0.3
		l-0.4,1.3c-0.4-0.1-0.8-0.2-1.2-0.2c-0.3,0-0.6,0.1-0.9,0.4c-0.2,0.3-0.3,0.7-0.3,1.1V72h2L186.8,73.2z"/>
	<path class="st2" d="M202.1,80h-1.9l-1.8-6.4c-0.1-0.3-0.2-0.7-0.3-1.2c-0.1-0.4-0.2-0.7-0.2-1.1c-0.1,0.3-0.1,0.7-0.2,1.2
		s-0.2,0.9-0.3,1.1l-1.8,6.4h-1.9l-1.4-5.4l-1.4-5.3h1.8l1.5,6.2c0.2,1,0.4,1.9,0.5,2.7c0.1-0.4,0.1-0.9,0.2-1.4s0.2-0.9,0.3-1.2
		l1.7-6.3h1.7l1.8,6.3c0.2,0.9,0.4,1.7,0.5,2.6c0.1-0.9,0.3-1.8,0.5-2.7l1.5-6.2h1.8L202.1,80z"/>
	<path class="st2" d="M213.3,80h-1.7v-5c0-0.5-0.1-1-0.4-1.4c-0.3-0.3-0.8-0.5-1.2-0.5c-0.6-0.1-1.2,0.2-1.6,0.7
		c-0.4,0.6-0.6,1.4-0.5,2.2v4h-1.7V68.6h1.7v2.9c0,0.5,0,1-0.1,1.5h0.1c0.2-0.4,0.6-0.7,1-0.9c0.5-0.2,1-0.3,1.5-0.3
		c2,0,2.9,1,2.9,3V80z"/>
	<path class="st2" d="M215.6,69.7c0-0.3,0.1-0.5,0.3-0.7c0.4-0.3,1-0.3,1.4,0c0.2,0.2,0.3,0.4,0.3,0.7c0,0.3-0.1,0.5-0.3,0.7
		c-0.4,0.3-1,0.3-1.4,0C215.7,70.2,215.6,70,215.6,69.7z M217.5,80h-1.7v-8.1h1.7V80z"/>
	<path class="st2" d="M222.9,78.7c0.4,0,0.9-0.1,1.3-0.2v1.3c-0.2,0.1-0.5,0.2-0.7,0.2c-0.3,0.1-0.6,0.1-0.9,0.1
		c-1.6,0-2.4-0.8-2.4-2.6v-4.4H219v-0.8l1.2-0.6l0.6-1.7h1.1v1.8h2.3v1.3h-2.3v4.3c0,0.3,0.1,0.7,0.3,0.9
		C222.4,78.6,222.6,78.7,222.9,78.7z"/>
	<path class="st2" d="M229.4,80.1c-1.1,0.1-2.2-0.3-3-1.1c-0.7-0.8-1.1-1.9-1.1-3c-0.1-1.1,0.3-2.2,1-3.1c0.7-0.8,1.7-1.2,2.7-1.1
		c0.9,0,1.9,0.3,2.5,1c0.7,0.7,1,1.7,0.9,2.7v0.9H227c0,0.7,0.2,1.3,0.6,1.8c0.4,0.4,1.1,0.7,1.7,0.6c0.5,0,0.9,0,1.3-0.1
		c0.5-0.1,0.9-0.3,1.3-0.4v1.4c-0.4,0.2-0.8,0.3-1.3,0.4C230.3,80.1,229.8,80.1,229.4,80.1z M229,73c-0.5,0-1,0.2-1.3,0.5
		c-0.4,0.4-0.6,1-0.6,1.5h3.7c0-0.5-0.1-1.1-0.5-1.5C230,73.2,229.5,73,229,73z"/>
	<path class="st2" d="M245.2,80l-1.1-3H240l-1,3h-1.9l4-10.8h1.9l4,10.8H245.2z M243.6,75.5l-1-2.9c-0.1-0.2-0.2-0.5-0.3-0.9
		s-0.2-0.7-0.3-0.9c-0.2,0.7-0.4,1.3-0.6,2l-1,2.8L243.6,75.5z"/>
	<path class="st2" d="M247.1,83c-0.4,0-0.8-0.1-1.2-0.2v-1.5c0.3,0.1,0.7,0.1,1.1,0.2c0.9,0,1.4-0.6,1.4-1.8V69.3h1.8v10.3
		c0.1,0.9-0.2,1.8-0.8,2.5C248.8,82.7,248,83.1,247.1,83z"/>
	<path class="st2" d="M257.2,80h-1.7v-6.9c0-0.8,0-1.5,0-2c-0.1,0.1-0.3,0.3-0.4,0.4l-1.6,1.3l-0.9-1.1l3.1-2.5h1.4L257.2,80z"/>
	<path class="st2" d="M124.6,106.2h-2l-3.4-4.8l-1,0.8v4h-1.8V95.5h1.8v5.1c0.5-0.6,1-1.2,1.4-1.7l2.9-3.4h2c-1.9,2.2-3.2,3.8-4,4.7
		L124.6,106.2z"/>
	<path class="st2" d="M125.7,96c0-0.3,0.1-0.5,0.3-0.7c0.4-0.4,1-0.4,1.4,0.1c0.2,0.2,0.3,0.4,0.3,0.7c0,0.3-0.1,0.5-0.3,0.7
		c-0.4,0.3-1,0.3-1.4,0C125.8,96.5,125.7,96.3,125.7,96z M127.5,106.3h-1.7v-8.2h1.7V106.3z"/>
	<path class="st2" d="M133,105c0.4,0,0.9-0.1,1.3-0.2v1.3c-0.2,0.1-0.5,0.2-0.7,0.2c-0.3,0.1-0.6,0.1-0.9,0.1
		c-1.6,0-2.4-0.9-2.4-2.6v-4.4H129v-0.8l1.2-0.6l0.6-1.7h1.1v1.8h2.3v1.3h-2.3v4.3c0,0.3,0.1,0.7,0.3,0.9
		C132.4,104.9,132.7,105,133,105z"/>
	<path class="st2" d="M143,106.2h-1.7v-5c0-0.5-0.1-1-0.4-1.4c-0.3-0.3-0.8-0.5-1.2-0.5c-0.6-0.1-1.2,0.2-1.6,0.7
		c-0.4,0.6-0.6,1.4-0.5,2.2v4h-1.7V94.8h1.7v2.9c0,0.5,0,1-0.1,1.5h0.1c0.2-0.4,0.6-0.7,1-0.9c0.5-0.2,1-0.3,1.5-0.3
		c2,0,2.9,1,2.9,3V106.2z"/>
	<line class="st3" x1="55" y1="88.2" x2="87.5" y2="55.7"/>
	<line class="st3" x1="55" y1="88.5" x2="41.8" y2="75.2"/>
	<g>
		<path class="st0" d="M69.4,103.1h409.7c12.9,0,23.3,10.4,23.3,23.3v67.3c0,12.9-10.4,23.3-23.3,23.3H69.4
			c-12.9,0-23.3-10.4-23.3-23.3v-67.3C46.1,113.5,56.5,103.1,69.4,103.1z"/>
	</g>
	<path class="st1" d="M157.5,139.4c0.1,1.4-0.6,2.8-1.7,3.6c-1.3,1-3,1.4-4.6,1.3c-1.7,0-3.3-0.3-4.9-1V140c0.9,0.4,1.9,0.8,2.9,1.1
		c0.7,0.2,1.5,0.3,2.2,0.3c0.6,0,1.3-0.1,1.8-0.5c0.4-0.3,0.7-0.8,0.6-1.4c0-0.3-0.1-0.6-0.3-0.9c-0.2-0.3-0.5-0.6-0.8-0.8
		c-0.7-0.4-1.5-0.8-2.2-1.2c-0.8-0.4-1.6-0.8-2.4-1.4c-0.5-0.4-0.9-1-1.3-1.6c-0.3-0.7-0.5-1.4-0.5-2.1c-0.1-1.4,0.5-2.7,1.5-3.6
		c1.2-0.9,2.7-1.4,4.3-1.3c0.9,0,1.7,0.1,2.5,0.3c0.9,0.2,1.7,0.5,2.5,0.9l-1.2,2.8c-0.7-0.3-1.5-0.6-2.3-0.8
		c-0.6-0.1-1.2-0.2-1.8-0.2s-1.1,0.1-1.6,0.5c-0.4,0.3-0.6,0.8-0.6,1.3c0,0.3,0.1,0.6,0.2,0.8c0.2,0.3,0.4,0.5,0.7,0.7
		c0.7,0.5,1.5,0.9,2.3,1.2c1.3,0.5,2.4,1.3,3.3,2.3C157.2,137.3,157.5,138.3,157.5,139.4z"/>
	<path class="st1" d="M169.6,144.1l-0.5-1.7h-0.2c-0.4,0.6-1,1.1-1.6,1.4c-0.8,0.3-1.6,0.5-2.4,0.5c-1.3,0.1-2.5-0.4-3.5-1.2
		c-0.8-1-1.3-2.3-1.2-3.6V131h3.6v7.7c-0.1,0.7,0.1,1.5,0.5,2.1c0.4,0.5,1,0.8,1.6,0.7c0.8,0.1,1.7-0.3,2.2-1c0.5-1,0.8-2.2,0.7-3.3
		V131h3.6v13.1H169.6z"/>
	<path class="st1" d="M181.4,144.4c-4.1,0-6.1-2.2-6.1-6.7c-0.1-1.9,0.5-3.7,1.7-5.1c1.3-1.2,3-1.9,4.8-1.8c1.4,0,2.8,0.3,4.1,0.9
		l-1.1,2.8c-0.6-0.2-1.1-0.4-1.6-0.6c-0.5-0.1-1-0.2-1.4-0.2c-1.9,0-2.8,1.3-2.8,4c0,2.6,0.9,3.9,2.8,3.9c0.6,0,1.3-0.1,1.9-0.3
		c0.6-0.2,1.2-0.5,1.8-0.9v3.1c-0.5,0.3-1.1,0.6-1.8,0.8C182.9,144.3,182.1,144.4,181.4,144.4z"/>
	<path class="st1" d="M193.7,144.4c-4.1,0-6.1-2.2-6.1-6.7c-0.1-1.9,0.5-3.7,1.7-5.1c1.3-1.2,3-1.9,4.8-1.8c1.4,0,2.8,0.3,4.1,0.9
		l-1.1,2.8c-0.6-0.2-1.1-0.4-1.6-0.6c-0.5-0.1-1-0.2-1.4-0.2c-1.9,0-2.8,1.3-2.8,4c0,2.6,0.9,3.9,2.8,3.9c0.6,0,1.3-0.1,1.9-0.3
		c0.6-0.2,1.2-0.5,1.8-0.9v3.1c-0.5,0.3-1.1,0.6-1.8,0.8C195.2,144.3,194.5,144.4,193.7,144.4z"/>
	<path class="st1" d="M206.7,144.4c-1.8,0.1-3.6-0.5-4.9-1.8c-1.3-1.3-1.9-3.1-1.8-4.9c-0.1-1.8,0.5-3.7,1.6-5.1
		c1.2-1.2,2.8-1.9,4.6-1.8c1.6-0.1,3.2,0.5,4.3,1.6c1.1,1.2,1.6,2.8,1.5,4.4v1.7h-8.4c0,0.9,0.3,1.7,0.9,2.4
		c0.6,0.6,1.5,0.9,2.4,0.9c0.8,0,1.5-0.1,2.2-0.3c0.8-0.2,1.5-0.4,2.2-0.8v2.8c-0.6,0.3-1.3,0.6-2,0.7
		C208.4,144.3,207.5,144.4,206.7,144.4z M206.2,133.4c-0.7,0-1.3,0.2-1.8,0.7c-0.5,0.6-0.7,1.3-0.7,2.1h5c0.1-0.8-0.2-1.5-0.6-2.1
		C207.5,133.5,206.9,133.3,206.2,133.4L206.2,133.4z"/>
	<path class="st1" d="M224.1,140.2c0.1,1.2-0.5,2.3-1.4,3.1c-1.3,0.8-2.7,1.1-4.2,1c-0.8,0-1.6-0.1-2.4-0.2
		c-0.6-0.1-1.3-0.3-1.9-0.6v-3c0.7,0.3,1.5,0.6,2.2,0.8s1.5,0.3,2.2,0.3c1.3,0,1.9-0.4,1.9-1.1c0-0.3-0.1-0.5-0.3-0.7
		c-0.3-0.2-0.6-0.4-0.9-0.6c-0.4-0.2-1-0.5-1.7-0.8c-0.8-0.3-1.5-0.7-2.2-1.2c-0.4-0.3-0.8-0.7-1-1.2s-0.3-1.1-0.3-1.7
		c0-1.1,0.5-2.1,1.4-2.7c1.2-0.7,2.5-1,3.8-0.9c1.6,0,3.2,0.3,4.6,1l-1.1,2.6c-0.6-0.3-1.2-0.5-1.8-0.7s-1.1-0.3-1.7-0.3
		c-1.1,0-1.6,0.3-1.6,0.9c0,0.3,0.2,0.7,0.5,0.8c0.7,0.4,1.5,0.8,2.2,1.1c0.8,0.3,1.6,0.7,2.3,1.2c0.4,0.3,0.8,0.8,1.1,1.2
		C224,139,224.1,139.6,224.1,140.2z"/>
	<path class="st1" d="M236,140.2c0.1,1.2-0.5,2.3-1.4,3.1c-1.3,0.8-2.7,1.1-4.2,1c-0.8,0-1.6-0.1-2.4-0.2c-0.6-0.1-1.3-0.3-1.9-0.6
		v-3c0.7,0.3,1.5,0.6,2.2,0.8s1.5,0.3,2.2,0.3c1.3,0,1.9-0.4,1.9-1.1c0-0.3-0.1-0.5-0.3-0.7c-0.3-0.2-0.6-0.4-0.9-0.6
		c-0.4-0.2-1-0.5-1.7-0.8c-0.8-0.3-1.5-0.7-2.2-1.2c-0.4-0.3-0.8-0.7-1-1.2s-0.3-1.1-0.3-1.7c0-1.1,0.5-2.1,1.4-2.7
		c1.2-0.7,2.5-1,3.8-0.9c1.6,0,3.2,0.3,4.6,1l-1.1,2.6c-0.6-0.3-1.2-0.5-1.8-0.7s-1.1-0.3-1.7-0.3c-1.1,0-1.6,0.3-1.6,0.9
		c0,0.3,0.2,0.7,0.5,0.8c0.7,0.4,1.5,0.8,2.2,1.1c0.8,0.3,1.6,0.7,2.3,1.2c0.4,0.3,0.8,0.8,1.1,1.2C235.9,139,236,139.6,236,140.2z"
		/>
	<path class="st1" d="M246,133.7h-3.1v10.4h-3.6v-10.4h-2V132l2-1v-1c-0.1-1.2,0.3-2.4,1.1-3.3c1-0.8,2.3-1.1,3.5-1
		c1.1,0,2.2,0.2,3.3,0.6l-0.9,2.6c-0.6-0.2-1.3-0.3-2-0.3c-0.4,0-0.8,0.1-1.1,0.4c-0.2,0.3-0.4,0.7-0.3,1.1v0.8h3.1V133.7z"/>
	<path class="st1" d="M257.4,144.1l-0.5-1.7h-0.2c-0.4,0.6-1,1.1-1.6,1.4c-0.8,0.3-1.6,0.5-2.4,0.5c-1.3,0.1-2.6-0.4-3.5-1.2
		c-0.8-1-1.3-2.3-1.2-3.6V131h3.6v7.7c-0.1,0.7,0.1,1.5,0.5,2.1c0.4,0.5,1,0.8,1.6,0.7c0.8,0.1,1.7-0.3,2.2-1c0.5-1,0.8-2.2,0.7-3.3
		V131h3.6v13.1H257.4z"/>
	<path class="st1" d="M267.4,144.1h-3.6v-18.2h3.6V144.1z"/>
	<path class="st1" d="M274.7,144.1h-3.6v-18.2h3.6V144.1z"/>
	<path class="st1" d="M276.6,131h3.9l2.5,7.4c0.2,0.7,0.4,1.5,0.4,2.3h0.1c0.1-0.8,0.2-1.5,0.5-2.3l2.4-7.4h3.8l-5.5,14.8
		c-0.4,1.2-1.2,2.3-2.2,3.1c-1,0.7-2.1,1-3.3,1c-0.6,0-1.2-0.1-1.8-0.2v-2.8c0.5,0.1,0.9,0.2,1.4,0.1c0.6,0,1.2-0.2,1.6-0.6
		c0.5-0.5,0.9-1.1,1.1-1.8l0.2-0.6L276.6,131z"/>
	<path class="st1" d="M305.9,129.8c-1.3-0.1-2.4,0.5-3.2,1.5c-0.8,1.3-1.2,2.8-1.1,4.3c0,3.8,1.4,5.7,4.3,5.7c1.5-0.1,3-0.4,4.4-0.9
		v3.1c-1.5,0.6-3.1,0.9-4.7,0.9c-2.2,0.1-4.2-0.7-5.7-2.3c-1.3-1.5-2-3.7-2-6.5c0-1.6,0.3-3.2,1-4.7c0.6-1.3,1.6-2.4,2.8-3.1
		c1.3-0.7,2.8-1.1,4.3-1.1c1.7,0,3.4,0.4,5,1.2l-1.2,3c-0.6-0.3-1.3-0.6-1.9-0.8C307.2,129.9,306.6,129.8,305.9,129.8z"/>
	<path class="st1" d="M325.8,144.1h-3.6v-7.7c0-1.9-0.7-2.8-2.1-2.8c-0.8-0.1-1.7,0.3-2.2,1c-0.5,1-0.8,2.2-0.7,3.3v6.2h-3.6v-18.2
		h3.6v3.7c0,0.3,0,1-0.1,2l-0.1,1.1h0.2c0.8-1.3,2.3-2,3.8-1.9c1.3-0.1,2.6,0.4,3.5,1.2c0.9,1,1.3,2.3,1.2,3.6L325.8,144.1z"/>
	<path class="st1" d="M335.4,144.4c-1.8,0.1-3.6-0.5-5-1.8c-1.3-1.3-1.9-3.1-1.8-4.9c-0.1-1.8,0.5-3.7,1.6-5.1
		c1.2-1.2,2.8-1.9,4.5-1.8c1.6-0.1,3.2,0.5,4.3,1.6c1.1,1.2,1.6,2.8,1.5,4.4v1.7H332c0,0.9,0.3,1.7,0.9,2.4c0.6,0.6,1.5,0.9,2.4,0.9
		c0.8,0,1.5-0.1,2.2-0.3c0.8-0.2,1.5-0.4,2.2-0.8v2.8c-0.6,0.3-1.3,0.6-2,0.7C337.1,144.3,336.3,144.4,335.4,144.4z M334.9,133.4
		c-0.7,0-1.3,0.2-1.8,0.7c-0.5,0.6-0.7,1.3-0.7,2.1h5c0-0.7-0.2-1.5-0.7-2.1C336.2,133.6,335.5,133.3,334.9,133.4L334.9,133.4z"/>
	<path class="st1" d="M349,144.4c-4.1,0-6.1-2.2-6.1-6.7c-0.1-1.9,0.5-3.7,1.7-5.1c1.3-1.2,3-1.9,4.8-1.8c1.4,0,2.8,0.3,4.1,0.9
		l-1,2.8c-0.6-0.2-1.1-0.4-1.6-0.6c-0.5-0.1-1-0.2-1.5-0.2c-1.8,0-2.8,1.3-2.8,4c0,2.6,0.9,3.9,2.8,3.9c0.6,0,1.3-0.1,1.9-0.3
		s1.2-0.5,1.8-0.9v3.1c-0.5,0.3-1.1,0.6-1.8,0.8C350.5,144.3,349.8,144.4,349,144.4z"/>
	<path class="st1" d="M359.4,137l1.6-2l3.7-4h4l-5.2,5.7l5.5,7.4h-4.1l-3.8-5.3l-1.5,1.2v4.1H356v-18.2h3.6v8.1L359.4,137L359.4,137
		z"/>
	<path class="st1" d="M376.8,144.4c-1.8,0.1-3.6-0.5-5-1.8c-1.2-1.3-1.9-3.1-1.8-4.9c-0.1-1.8,0.5-3.7,1.6-5.1
		c1.2-1.2,2.8-1.9,4.5-1.8c1.6-0.1,3.2,0.5,4.3,1.6c1.1,1.2,1.6,2.8,1.5,4.4v1.7h-8.5c0,0.9,0.3,1.7,0.9,2.4
		c0.6,0.6,1.5,0.9,2.4,0.9c0.8,0,1.5-0.1,2.2-0.3c0.8-0.2,1.5-0.4,2.2-0.8v2.8c-0.6,0.3-1.3,0.6-2,0.7
		C378.5,144.3,377.7,144.4,376.8,144.4z M376.3,133.4c-0.7,0-1.3,0.2-1.8,0.7c-0.5,0.6-0.7,1.3-0.7,2.1h5c0-0.7-0.2-1.5-0.7-2.1
		C377.6,133.6,377,133.3,376.3,133.4L376.3,133.4z"/>
	<path class="st1" d="M389.2,144.4c-1.4,0.1-2.8-0.6-3.6-1.8c-1.8-3.1-1.8-6.9,0-10c0.9-1.2,2.2-1.9,3.7-1.8
		c1.5-0.1,2.9,0.7,3.8,1.9h0.1c-0.2-0.9-0.3-1.7-0.3-2.6v-4.2h3.6v18.2h-2.7l-0.7-1.7h-0.2C392.1,143.7,390.7,144.4,389.2,144.4z
		 M390.4,141.5c0.8,0.1,1.5-0.2,2-0.8c0.5-0.8,0.8-1.8,0.7-2.7v-0.4c0.1-1-0.1-2.1-0.6-3c-0.5-0.6-1.3-1-2.1-0.9
		c-0.8,0-1.5,0.4-1.9,1c-0.5,0.9-0.7,1.9-0.7,2.9c-0.1,1,0.2,2,0.7,2.9C388.9,141.2,389.7,141.5,390.4,141.5z"/>
	<path class="st1" d="M422.3,135.5c0,2.8-0.7,5-2.1,6.5c-3.5,3.1-8.6,3.1-12.1,0c-1.4-1.5-2.1-3.7-2.1-6.6s0.7-5,2.1-6.5
		c1.6-1.6,3.8-2.4,6.1-2.3c2.2-0.1,4.4,0.7,6,2.3C421.6,130.5,422.3,132.7,422.3,135.5z M409.8,135.5c-0.1,1.5,0.3,3,1.1,4.3
		c0.8,1,2,1.5,3.3,1.4c2.9,0,4.4-1.9,4.4-5.8c0-3.9-1.5-5.8-4.3-5.8c-1.3-0.1-2.5,0.5-3.3,1.5C410.1,132.5,409.7,134,409.8,135.5z"
		/>
	<path class="st1" d="M434.8,144.1l-0.5-1.7h-0.2c-0.4,0.6-1,1.1-1.6,1.4c-0.8,0.3-1.6,0.5-2.4,0.5c-1.3,0.1-2.5-0.4-3.5-1.2
		c-0.8-1-1.3-2.3-1.2-3.6V131h3.6v7.7c0,0.7,0.1,1.5,0.5,2.1c0.4,0.5,1,0.8,1.6,0.7c0.8,0.1,1.7-0.3,2.2-1c0.5-1,0.8-2.2,0.7-3.3
		V131h3.6v13.1H434.8z"/>
	<path class="st1" d="M446.9,141.5c0.8,0,1.5-0.2,2.3-0.4v2.7c-1,0.4-2.2,0.6-3.3,0.6c-1.2,0.1-2.3-0.3-3.1-1.1
		c-0.7-0.9-1.1-2.1-1-3.3v-6.3H440v-1.5l2-1.2l1-2.8h2.3v2.8h3.7v2.7h-3.7v6.3c0,0.4,0.1,0.8,0.4,1.1
		C446.1,141.4,446.5,141.5,446.9,141.5z"/>
	<path class="st2" d="M155.5,167.9h-2.1l-5.3-8.5H148v0.5c0.1,0.9,0.1,1.7,0.1,2.5v5.6h-1.6v-10.7h2.1l5.3,8.5l0,0
		c0-0.1,0-0.5-0.1-1.2c0-0.7-0.1-1.3-0.1-1.6v-5.6h1.6L155.5,167.9z"/>
	<path class="st2" d="M158.1,157.6c0-0.3,0.1-0.5,0.3-0.7s0.5-0.3,0.7-0.3c0.3,0,0.5,0.1,0.7,0.3s0.3,0.4,0.3,0.7s-0.1,0.5-0.3,0.7
		s-0.4,0.3-0.7,0.3s-0.5-0.1-0.7-0.3C158.1,158.1,158.1,157.9,158.1,157.6z M159.9,167.9h-1.7v-8.1h1.7V167.9z"/>
	<path class="st2" d="M164,163.6l1-1.2l2.4-2.6h2l-3.3,3.5l3.5,4.6h-2l-2.6-3.6l-0.9,0.8v2.8h-1.7v-11.4h1.7v5.5L164,163.6z"/>
	<path class="st2" d="M174.5,168c-1.1,0.1-2.2-0.3-3-1.1c-0.7-0.8-1.1-1.9-1.1-3c-0.1-1.1,0.3-2.2,1-3.1c0.7-0.8,1.7-1.2,2.7-1.1
		c1,0,1.9,0.3,2.5,1c0.7,0.7,1,1.7,0.9,2.7v0.9h-5.4c0,0.7,0.2,1.3,0.6,1.8c0.4,0.4,1.1,0.7,1.7,0.6c0.5,0,0.9,0,1.3-0.1
		c0.5-0.1,0.9-0.3,1.3-0.4v1.4c-0.4,0.2-0.8,0.3-1.3,0.4C175.4,168,175,168,174.5,168z M174.1,160.9c-0.5,0-1,0.2-1.3,0.5
		c-0.4,0.4-0.6,1-0.6,1.5h3.7c0-0.5-0.1-1.1-0.5-1.5C175.1,161.1,174.6,160.9,174.1,160.9L174.1,160.9z"/>
	<path class="st2" d="M185.3,163.7l-2.7-4h2l1.8,2.8l1.9-2.8h1.9l-2.7,4l2.9,4.1h-1.9l-2-3l-2,3h-2L185.3,163.7z"/>
	<path class="st2" d="M205.3,162.5c0.1,1.5-0.4,2.9-1.3,4.1c-2.1,1.9-5.3,1.9-7.4,0c-0.9-1.2-1.4-2.6-1.3-4.1
		c-0.1-1.5,0.4-2.9,1.3-4.1c1-1,2.3-1.5,3.7-1.4c1.4-0.1,2.7,0.4,3.7,1.4C204.9,159.6,205.4,161,205.3,162.5z M197.1,162.5
		c-0.1,1.1,0.2,2.1,0.8,3c0.6,0.7,1.5,1.1,2.4,1c0.9,0.1,1.8-0.3,2.4-1c1.1-1.9,1.1-4.1,0-6c-0.6-0.7-1.5-1.1-2.4-1
		c-0.9-0.1-1.8,0.3-2.4,1C197.3,160.4,197.1,161.4,197.1,162.5L197.1,162.5z"/>
	<path class="st2" d="M211.5,161.1h-2v6.8h-1.7v-6.8h-1.3v-0.8l1.3-0.5v-0.5c-0.1-0.8,0.2-1.5,0.7-2.1c0.6-0.5,1.3-0.8,2.1-0.7
		c0.6,0,1.2,0.1,1.8,0.3l-0.4,1.3c-0.4-0.1-0.8-0.2-1.2-0.2c-0.3,0-0.6,0.1-0.9,0.4c-0.2,0.3-0.3,0.7-0.3,1.1v0.5h2L211.5,161.1z
		 M216.9,161.1h-2v6.8h-1.7v-6.8h-1.3v-0.8l1.3-0.5v-0.5c-0.1-0.8,0.2-1.5,0.7-2.1c0.6-0.5,1.3-0.8,2.1-0.7c0.6,0,1.2,0.1,1.8,0.3
		l-0.5,1.3c-0.4-0.1-0.8-0.2-1.2-0.2c-0.3,0-0.7,0.1-0.9,0.4c-0.2,0.3-0.3,0.7-0.3,1.1v0.5h2L216.9,161.1z"/>
	<path class="st2" d="M232.3,167.9h-1.9l-1.8-6.4c-0.1-0.3-0.2-0.7-0.3-1.2s-0.2-0.9-0.2-1.1c-0.1,0.3-0.1,0.7-0.2,1.2
		s-0.2,0.9-0.3,1.1l-1.8,6.4h-1.9l-1.4-5.4l-1.4-5.4h1.8l1.5,6.2c0.2,0.9,0.4,1.8,0.5,2.6c0.1-0.4,0.1-0.9,0.2-1.4s0.2-0.9,0.3-1.2
		l1.7-6.3h1.7l1.8,6.3c0.2,0.9,0.4,1.7,0.5,2.6c0.1-0.9,0.3-1.8,0.5-2.7l1.5-6.2h1.8L232.3,167.9z"/>
	<path class="st2" d="M243.5,167.9h-1.7v-5c0-0.5-0.1-1-0.4-1.4c-0.3-0.3-0.8-0.5-1.2-0.5c-0.6-0.1-1.2,0.2-1.6,0.6
		c-0.4,0.6-0.6,1.4-0.5,2.2v4h-1.7v-11.4h1.7v2.9c0,0.5,0,1-0.1,1.5h0.1c0.2-0.4,0.6-0.7,1-0.9c0.5-0.2,1-0.3,1.5-0.3
		c2,0,2.9,1,2.9,3V167.9z"/>
	<path class="st2" d="M245.8,157.6c0-0.3,0.1-0.5,0.3-0.7s0.5-0.3,0.7-0.3c0.3,0,0.5,0.1,0.7,0.3s0.3,0.4,0.3,0.7s-0.1,0.5-0.3,0.7
		s-0.4,0.3-0.7,0.3s-0.5-0.1-0.7-0.3C245.9,158.1,245.8,157.9,245.8,157.6z M247.7,167.9H246v-8.1h1.7V167.9z"/>
	<path class="st2" d="M253.1,166.6c0.4,0,0.9-0.1,1.3-0.2v1.3c-0.2,0.1-0.5,0.2-0.7,0.2c-0.3,0.1-0.6,0.1-0.9,0.1
		c-1.6,0-2.4-0.9-2.4-2.6V161h-1.1v-0.8l1.2-0.6l0.6-1.7h1.1v1.8h2.3v1.3H252v4.3c0,0.3,0.1,0.7,0.3,0.9
		C252.5,166.5,252.8,166.6,253.1,166.6z"/>
	<path class="st2" d="M259.5,168c-1.1,0.1-2.2-0.3-3-1.1c-0.7-0.8-1.1-1.9-1.1-3c-0.1-1.1,0.3-2.2,1-3.1c1.4-1.5,3.7-1.5,5.3-0.2
		c0.7,0.7,1,1.7,0.9,2.7v0.9h-5.4c0,0.7,0.2,1.3,0.6,1.8c0.4,0.4,1.1,0.7,1.7,0.6c0.4,0,0.9,0,1.3-0.1c0.5-0.1,0.9-0.3,1.3-0.4v1.4
		c-0.4,0.2-0.8,0.3-1.3,0.4C260.5,168,260,168,259.5,168z M259.2,160.9c-0.5,0-1,0.2-1.3,0.5c-0.4,0.4-0.6,1-0.6,1.5h3.7
		c0-0.5-0.1-1.1-0.5-1.5C260.2,161.1,259.7,160.9,259.2,160.9L259.2,160.9z"/>
	<path class="st2" d="M275.4,167.9l-1.1-3h-4.1l-1,3h-1.8l4-10.8h1.9l4,10.8H275.4z M273.8,163.4l-1-2.9c-0.1-0.2-0.2-0.5-0.3-0.9
		s-0.2-0.7-0.3-0.9c-0.2,0.7-0.3,1.3-0.6,2l-1,2.8L273.8,163.4z"/>
	<path class="st2" d="M277.3,170.9c-0.4,0-0.8-0.1-1.2-0.2v-1.5c0.3,0.1,0.7,0.2,1.1,0.2c1,0,1.4-0.6,1.4-1.8v-10.4h1.8v10.3
		c0.1,0.9-0.2,1.8-0.8,2.5C279,170.6,278.1,170.9,277.3,170.9z"/>
	<path class="st2" d="M287.4,167.9h-1.7V161c0-0.8,0-1.5,0.1-2c-0.1,0.1-0.3,0.3-0.4,0.4l-1.6,1.4l-0.9-1.1l3.1-2.5h1.4V167.9z"/>
	<path class="st2" d="M154.8,194.1h-2l-3.4-4.9l-1,0.8v4h-1.8v-10.7h1.8v5.1c0.5-0.6,0.9-1.1,1.4-1.7l2.9-3.4h2
		c-1.9,2.2-3.2,3.8-4,4.7L154.8,194.1z"/>
	<path class="st2" d="M155.9,183.9c0-0.3,0.1-0.5,0.3-0.7s0.5-0.3,0.7-0.2c0.3,0,0.5,0.1,0.7,0.2c0.2,0.2,0.3,0.4,0.3,0.7
		c0.1,0.5-0.2,0.9-0.7,1c-0.1,0-0.2,0-0.3,0c-0.3,0-0.5-0.1-0.7-0.3C155.9,184.4,155.9,184.1,155.9,183.9z M157.7,194.1H156V186h1.7
		V194.1z"/>
	<path class="st2" d="M163.2,192.9c0.4,0,0.9-0.1,1.3-0.2v1.3c-0.2,0.1-0.5,0.2-0.7,0.2c-0.3,0.1-0.6,0.1-0.9,0.1
		c-1.6,0-2.4-0.9-2.4-2.6v-4.4h-1.1v-0.8l1.2-0.6l0.6-1.7h1.1v1.8h2.3v1.3h-2.3v4.3c0,0.3,0.1,0.7,0.3,0.9
		C162.6,192.8,162.9,192.9,163.2,192.9z"/>
	<path class="st2" d="M173.2,194.1h-1.7v-5c0-0.5-0.1-1-0.4-1.4c-0.3-0.3-0.8-0.5-1.2-0.5c-0.6,0-1.2,0.2-1.6,0.6
		c-0.4,0.6-0.6,1.4-0.5,2.2v4h-1.7v-11.4h1.7v2.9c0,0.5,0,1-0.1,1.5h0.1c0.2-0.4,0.6-0.7,1-0.9c0.5-0.2,1-0.3,1.5-0.3
		c2,0,2.9,1,2.9,3V194.1z"/>
	<line class="st3" x1="85.2" y1="176.1" x2="117.7" y2="143.6"/>
	<line class="st3" x1="85.2" y1="176.4" x2="71.9" y2="163.1"/>
	<g>
		<g>
			<path class="st0" d="M99.1,190.9h409.7c12.9,0,23.3,10.4,23.3,23.3v67.3c0,12.9-10.4,23.3-23.3,23.3H99.1
				c-12.9,0-23.3-10.4-23.3-23.3v-67.3C75.8,201.4,86.2,190.9,99.1,190.9z"/>
		</g>
		<path class="st1" d="M187.2,227.3c0.1,1.4-0.6,2.8-1.7,3.7c-1.4,1-3,1.4-4.6,1.3c-1.7,0-3.3-0.3-4.9-1v-3.4c1,0.4,1.9,0.8,2.9,1.1
			c0.7,0.2,1.4,0.3,2.2,0.3c0.6,0,1.3-0.1,1.8-0.5c0.4-0.3,0.7-0.8,0.6-1.4c0-0.3-0.1-0.6-0.3-0.9c-0.2-0.3-0.5-0.6-0.8-0.8
			c-0.7-0.4-1.5-0.8-2.2-1.2c-0.8-0.4-1.6-0.8-2.4-1.4c-0.5-0.4-0.9-1-1.3-1.6c-0.3-0.7-0.5-1.4-0.5-2.1c-0.1-1.4,0.5-2.7,1.5-3.6
			c1.2-0.9,2.7-1.4,4.3-1.3c0.9,0,1.7,0.1,2.6,0.3c0.9,0.2,1.7,0.5,2.5,0.9l-1.2,2.8c-0.7-0.3-1.5-0.6-2.3-0.8
			c-0.6-0.1-1.2-0.2-1.8-0.2s-1.1,0.1-1.6,0.5c-0.4,0.3-0.6,0.8-0.6,1.3c0,0.3,0.1,0.6,0.2,0.8c0.2,0.3,0.4,0.5,0.7,0.7
			c0.7,0.4,1.5,0.8,2.3,1.2c1.3,0.5,2.4,1.3,3.3,2.3C186.9,225.3,187.2,226.3,187.2,227.3z"/>
		<path class="st1" d="M199.3,232l-0.5-1.7h-0.2c-0.4,0.6-1,1.1-1.6,1.4c-0.8,0.3-1.6,0.5-2.4,0.5c-1.3,0.1-2.5-0.4-3.5-1.2
			c-0.8-1-1.3-2.3-1.2-3.6v-8.5h3.6v7.6c-0.1,0.7,0.1,1.5,0.5,2.1c0.4,0.5,1,0.8,1.6,0.7c0.8,0.1,1.7-0.3,2.2-1
			c0.5-1,0.8-2.2,0.7-3.3v-6.2h3.6V232H199.3z"/>
		<path class="st1" d="M211.1,232.3c-4.1,0-6.1-2.2-6.1-6.7c-0.1-1.9,0.5-3.7,1.7-5.1c1.3-1.2,3-1.9,4.8-1.8c1.4,0,2.8,0.3,4.1,0.9
			l-1,2.8c-0.6-0.2-1.1-0.4-1.6-0.6c-0.5-0.1-1-0.2-1.5-0.2c-1.9,0-2.8,1.3-2.8,4s0.9,3.9,2.8,3.9c0.6,0,1.3-0.1,1.9-0.3
			c0.6-0.2,1.2-0.5,1.8-0.9v3.1c-0.5,0.4-1.1,0.6-1.8,0.8C212.6,232.2,211.9,232.3,211.1,232.3z"/>
		<path class="st1" d="M223.4,232.3c-4.1,0-6.1-2.2-6.1-6.7c-0.1-1.9,0.5-3.7,1.7-5.1c1.3-1.2,3-1.9,4.8-1.8c1.4,0,2.8,0.3,4.1,0.9
			l-1,2.8c-0.6-0.2-1.1-0.4-1.6-0.6c-0.5-0.1-1-0.2-1.5-0.2c-1.9,0-2.8,1.3-2.8,4s0.9,3.9,2.8,3.9c0.6,0,1.3-0.1,1.9-0.3
			c0.6-0.2,1.2-0.5,1.8-0.9v3.1c-0.5,0.4-1.1,0.6-1.8,0.8C225,232.2,224.2,232.3,223.4,232.3z"/>
		<path class="st1" d="M236.4,232.3c-1.8,0.1-3.6-0.5-4.9-1.7c-1.3-1.3-1.9-3.1-1.8-4.9c-0.1-1.8,0.5-3.7,1.6-5.1
			c1.2-1.2,2.8-1.9,4.6-1.8c1.6-0.1,3.2,0.5,4.3,1.6c1.1,1.2,1.6,2.8,1.6,4.4v1.7h-8.4c0,0.9,0.3,1.7,0.9,2.4
			c0.6,0.6,1.5,0.9,2.4,0.9c0.8,0,1.5-0.1,2.2-0.2c0.8-0.2,1.5-0.5,2.2-0.8v2.8c-0.6,0.3-1.3,0.5-2,0.7
			C238.1,232.2,237.3,232.3,236.4,232.3z M235.9,221.3c-0.7,0-1.3,0.2-1.8,0.7c-0.5,0.6-0.7,1.3-0.7,2h5c0-0.7-0.2-1.4-0.7-2
			C237.2,221.5,236.5,221.2,235.9,221.3L235.9,221.3z"/>
		<path class="st1" d="M253.8,228.1c0.1,1.2-0.5,2.3-1.4,3.1c-1.3,0.8-2.7,1.2-4.2,1.1c-0.8,0-1.6-0.1-2.4-0.2
			c-0.6-0.1-1.3-0.3-1.9-0.6v-3c0.7,0.3,1.5,0.6,2.3,0.8c0.7,0.2,1.4,0.3,2.2,0.3c1.3,0,2-0.4,2-1.1c0-0.3-0.1-0.5-0.3-0.7
			c-0.3-0.2-0.6-0.4-0.9-0.6c-0.4-0.2-1-0.5-1.7-0.8c-0.8-0.3-1.5-0.7-2.2-1.2c-0.4-0.3-0.8-0.8-1-1.2c-0.2-0.5-0.3-1.1-0.3-1.7
			c0-1.1,0.5-2.1,1.4-2.7c1.1-0.7,2.5-1.1,3.8-1c1.6,0,3.2,0.3,4.6,1l-1.1,2.6c-0.7-0.3-1.3-0.5-1.8-0.7c-0.6-0.2-1.2-0.3-1.8-0.3
			c-1.1,0-1.6,0.3-1.6,0.9c0,0.3,0.2,0.7,0.5,0.8c0.7,0.4,1.5,0.7,2.2,1c0.8,0.3,1.6,0.7,2.3,1.2c0.4,0.3,0.8,0.7,1.1,1.2
			C253.7,226.9,253.8,227.5,253.8,228.1z"/>
		<path class="st1" d="M265.7,228.1c0.1,1.2-0.5,2.3-1.4,3.1c-1.3,0.8-2.7,1.2-4.2,1.1c-0.8,0-1.6-0.1-2.4-0.2
			c-0.6-0.1-1.3-0.3-1.9-0.6v-3c0.7,0.3,1.5,0.6,2.3,0.8c0.7,0.2,1.4,0.3,2.2,0.3c1.3,0,2-0.4,2-1.1c0-0.3-0.1-0.5-0.3-0.7
			c-0.3-0.2-0.6-0.4-0.9-0.6c-0.4-0.2-1-0.5-1.7-0.8c-0.8-0.3-1.5-0.7-2.2-1.2c-0.4-0.3-0.8-0.8-1-1.2c-0.2-0.5-0.3-1.1-0.3-1.7
			c0-1.1,0.5-2.1,1.4-2.7c1.1-0.7,2.5-1.1,3.8-1c1.6,0,3.2,0.3,4.6,1l-1.1,2.6c-0.7-0.3-1.3-0.5-1.8-0.7c-0.6-0.2-1.2-0.3-1.8-0.3
			c-1,0-1.6,0.3-1.6,0.9c0,0.3,0.2,0.7,0.5,0.8c0.7,0.4,1.5,0.7,2.2,1c0.8,0.3,1.6,0.7,2.3,1.2c0.4,0.3,0.8,0.7,1.1,1.2
			C265.6,226.9,265.7,227.5,265.7,228.1z"/>
		<path class="st1" d="M275.7,221.6h-3.1V232H269v-10.4h-2v-1.7l2-1v-1c-0.1-1.2,0.3-2.4,1.1-3.3c1-0.8,2.3-1.1,3.5-1
			c1.1,0,2.2,0.2,3.3,0.6l-0.9,2.6c-0.6-0.2-1.3-0.3-2-0.3c-0.4,0-0.8,0.1-1.1,0.4c-0.2,0.3-0.4,0.7-0.3,1.2v0.8h3.1V221.6z"/>
		<path class="st1" d="M287.1,232l-0.5-1.7h-0.2c-0.4,0.6-1,1.1-1.6,1.4c-0.8,0.3-1.6,0.5-2.4,0.5c-1.3,0.1-2.5-0.4-3.5-1.2
			c-0.8-1-1.3-2.3-1.2-3.6v-8.5h3.6v7.6c-0.1,0.7,0.1,1.5,0.5,2.1c0.4,0.5,1,0.8,1.6,0.7c0.8,0.1,1.7-0.3,2.2-1
			c0.5-1,0.8-2.2,0.7-3.3v-6.2h3.6V232H287.1z"/>
		<path class="st1" d="M297.1,232h-3.6v-18.2h3.6V232z"/>
		<path class="st1" d="M304.5,232h-3.6v-18.2h3.6V232z"/>
		<path class="st1" d="M306.3,218.9h3.9l2.5,7.4c0.2,0.7,0.4,1.5,0.4,2.3h0.1c0.1-0.8,0.2-1.5,0.5-2.3l2.4-7.4h3.8l-5.5,14.8
			c-0.4,1.2-1.2,2.3-2.2,3.1c-1,0.7-2.1,1-3.3,1c-0.6,0-1.2-0.1-1.8-0.2v-2.8c0.5,0.1,0.9,0.2,1.4,0.1c0.6,0,1.2-0.2,1.7-0.6
			c0.5-0.5,0.9-1.1,1.1-1.8l0.2-0.6L306.3,218.9z"/>
		<path class="st1" d="M335.6,217.7c-1.3-0.1-2.4,0.5-3.2,1.5c-0.8,1.3-1.2,2.8-1.1,4.3c0,3.8,1.4,5.7,4.3,5.7
			c1.5-0.1,3-0.4,4.4-0.9v3c-1.5,0.6-3.1,0.9-4.7,0.9c-2.2,0.1-4.3-0.7-5.7-2.3c-1.3-1.5-2-3.7-2-6.5c0-1.6,0.3-3.2,1-4.7
			c0.6-1.3,1.6-2.4,2.8-3.1c1.3-0.7,2.8-1.1,4.3-1.1c1.7,0,3.4,0.4,5,1.2l-1.2,3c-0.6-0.3-1.3-0.6-1.9-0.8
			C336.9,217.8,336.3,217.7,335.6,217.7z"/>
		<path class="st1" d="M355.5,232h-3.6v-7.7c0-1.9-0.7-2.8-2.1-2.8c-0.8-0.1-1.7,0.3-2.2,1c-0.5,1-0.8,2.2-0.7,3.3v6.2h-3.6v-18.2
			h3.6v3.7c0,0.3,0,1-0.1,2l-0.1,1.1h0.2c0.8-1.3,2.3-2,3.8-1.9c1.3-0.1,2.6,0.4,3.5,1.2c0.8,1,1.3,2.3,1.2,3.6L355.5,232z"/>
		<path class="st1" d="M365.1,232.3c-1.8,0.1-3.6-0.5-4.9-1.7c-1.3-1.3-1.9-3.1-1.8-4.9c-0.1-1.8,0.5-3.7,1.6-5.1
			c1.2-1.2,2.9-1.9,4.6-1.8c1.6-0.1,3.2,0.5,4.3,1.6c1.1,1.2,1.6,2.8,1.5,4.4v1.7H362c0,0.9,0.3,1.7,0.9,2.4
			c0.6,0.6,1.5,0.9,2.4,0.9c0.8,0,1.5-0.1,2.2-0.2c0.8-0.2,1.5-0.5,2.2-0.8v2.8c-0.6,0.3-1.3,0.5-2,0.7
			C366.8,232.2,366,232.3,365.1,232.3z M364.6,221.3c-0.7,0-1.3,0.2-1.8,0.7c-0.5,0.6-0.7,1.3-0.7,2h5c0-0.7-0.2-1.4-0.7-2
			C365.9,221.5,365.3,221.2,364.6,221.3L364.6,221.3z"/>
		<path class="st1" d="M378.6,232.3c-4.1,0-6.1-2.2-6.1-6.7c-0.1-1.9,0.5-3.7,1.7-5.1c1.3-1.2,3-1.9,4.8-1.8c1.4,0,2.8,0.3,4.1,0.9
			l-1,2.8c-0.5-0.2-1-0.4-1.6-0.6c-0.5-0.1-1-0.2-1.5-0.2c-1.9,0-2.8,1.3-2.8,4s0.9,3.9,2.8,3.9c0.6,0,1.3-0.1,1.9-0.3
			s1.2-0.5,1.8-0.9v3.1c-0.5,0.4-1.1,0.6-1.8,0.8C380.2,232.2,379.4,232.3,378.6,232.3z"/>
		<path class="st1" d="M389.1,224.9l1.5-2l3.7-4h4l-5.2,5.7l5.5,7.4h-4.1l-3.8-5.3l-1.5,1.2v4.1h-3.6v-18.2h3.6v8.1L389.1,224.9
			L389.1,224.9z"/>
		<path class="st1" d="M406.5,232.3c-1.8,0.1-3.6-0.5-5-1.7c-1.3-1.3-1.9-3.1-1.8-4.9c-0.1-1.8,0.5-3.7,1.6-5.1
			c1.2-1.2,2.9-1.9,4.6-1.8c1.6-0.1,3.2,0.5,4.3,1.6c1.1,1.2,1.6,2.8,1.5,4.4v1.7h-8.5c0,0.9,0.3,1.7,0.9,2.4
			c0.6,0.6,1.5,0.9,2.4,0.9c0.8,0,1.5-0.1,2.2-0.2c0.8-0.2,1.5-0.5,2.2-0.8v2.8c-0.6,0.3-1.3,0.5-2,0.7
			C408.2,232.2,407.4,232.3,406.5,232.3z M406,221.3c-0.7,0-1.3,0.2-1.8,0.7c-0.5,0.6-0.7,1.3-0.7,2h5c0-0.7-0.2-1.4-0.7-2
			C407.3,221.5,406.7,221.2,406,221.3L406,221.3z"/>
		<path class="st1" d="M418.9,232.3c-1.4,0.1-2.8-0.6-3.6-1.8c-1.8-3.1-1.8-6.9,0-10c0.9-1.2,2.2-1.9,3.7-1.8
			c1.5-0.1,2.9,0.7,3.8,1.9h0.1c-0.2-0.9-0.3-1.7-0.3-2.6v-4.2h3.6V232h-2.7l-0.7-1.7h-0.1C421.8,231.6,420.4,232.3,418.9,232.3z
			 M420.1,229.4c0.8,0.1,1.5-0.2,2-0.8c0.5-0.8,0.7-1.8,0.7-2.7v-0.4c0.1-1-0.1-2.1-0.6-3c-0.5-0.6-1.3-1-2.1-0.9
			c-0.8,0-1.5,0.4-1.9,1c-0.5,0.9-0.7,1.9-0.7,2.9c-0.1,1,0.2,2,0.7,2.9C418.6,229.1,419.4,229.4,420.1,229.4z"/>
		<path class="st1" d="M452,223.4c0.2,2.4-0.6,4.7-2.1,6.5c-3.5,3-8.6,3-12.1,0c-1.4-1.5-2.1-3.7-2.1-6.6s0.7-5,2.1-6.5
			c1.6-1.6,3.8-2.4,6.1-2.3c2.2-0.1,4.4,0.7,6,2.3C451.3,218.4,452,220.6,452,223.4z M439.5,223.4c-0.1,1.5,0.3,3,1.1,4.3
			c0.8,1,2,1.5,3.3,1.4c2.9,0,4.4-1.9,4.4-5.8c0-3.8-1.4-5.8-4.3-5.8c-1.3-0.1-2.5,0.5-3.3,1.5C439.8,220.4,439.4,221.9,439.5,223.4
			L439.5,223.4z"/>
		<path class="st1" d="M464.5,232l-0.5-1.7h-0.2c-0.4,0.6-1,1.1-1.6,1.4c-0.8,0.3-1.6,0.5-2.4,0.5c-1.3,0.1-2.5-0.4-3.5-1.2
			c-0.8-1-1.3-2.3-1.2-3.6v-8.5h3.6v7.6c-0.1,0.7,0.1,1.5,0.5,2.1c0.4,0.5,1,0.8,1.6,0.7c0.8,0.1,1.7-0.3,2.2-1
			c0.5-1,0.8-2.2,0.7-3.3v-6.2h3.6V232H464.5z"/>
		<path class="st1" d="M476.5,229.4c0.8,0,1.5-0.2,2.3-0.4v2.7c-1,0.4-2.2,0.6-3.3,0.6c-1.1,0.1-2.3-0.3-3.1-1.1
			c-0.7-0.9-1.1-2.1-1-3.3v-6.3h-1.7v-1.5l2-1.2l1-2.8h2.3v2.8h3.7v2.7H475v6.3c0,0.4,0.1,0.8,0.4,1.1
			C475.7,229.3,476.1,229.4,476.5,229.4z"/>
		<path class="st2" d="M185.2,255.8h-2.1l-5.3-8.5h-0.1v0.5c0.1,0.9,0.1,1.7,0.1,2.5v5.6h-1.6v-10.7h2.1l5.3,8.5l0,0
			c0-0.1,0-0.5-0.1-1.2c0-0.7,0-1.3,0-1.6v-5.6h1.6L185.2,255.8z"/>
		<path class="st2" d="M187.8,245.5c0-0.3,0.1-0.5,0.3-0.7c0.4-0.4,1-0.4,1.4,0.1c0.2,0.2,0.3,0.4,0.3,0.7s-0.1,0.5-0.3,0.7
			c-0.4,0.3-1,0.3-1.4,0C187.9,246,187.8,245.8,187.8,245.5z M189.6,255.8h-1.7v-8.1h1.7V255.8z"/>
		<path class="st2" d="M193.7,251.5l1-1.2l2.4-2.6h2l-3.3,3.5l3.5,4.6h-2l-2.6-3.6l-0.9,0.8v2.8h-1.7v-11.4h1.7v5.6L193.7,251.5
			L193.7,251.5z"/>
		<path class="st2" d="M204.2,255.9c-1.1,0.1-2.2-0.3-2.9-1.1s-1.1-1.9-1.1-3c-0.1-1.1,0.3-2.2,1-3.1c0.7-0.8,1.7-1.2,2.7-1.1
			c0.9,0,1.9,0.3,2.5,1c0.7,0.7,1,1.7,0.9,2.7v0.9h-5.4c0,0.7,0.2,1.3,0.6,1.8c0.4,0.4,1.1,0.7,1.7,0.6c0.5,0,0.9,0,1.3-0.1
			c0.5-0.1,0.9-0.3,1.3-0.4v1.4c-0.4,0.2-0.8,0.3-1.3,0.4C205.2,255.9,204.7,256,204.2,255.9z M203.9,248.8c-0.5,0-1,0.2-1.3,0.5
			c-0.4,0.4-0.6,1-0.6,1.5h3.7c0-0.5-0.1-1.1-0.5-1.5C204.8,249,204.3,248.8,203.9,248.8z"/>
		<path class="st2" d="M215,251.6l-2.7-4h2l1.9,2.8l1.9-2.8h1.9l-2.7,4l2.9,4.1h-2l-2-3l-2,3h-2L215,251.6z"/>
		<path class="st2" d="M235,250.4c0.1,1.5-0.4,2.9-1.3,4.1c-2.1,1.9-5.3,1.9-7.4,0c-0.9-1.2-1.4-2.6-1.3-4.1
			c-0.1-1.5,0.4-2.9,1.3-4.1c1-1,2.3-1.5,3.7-1.4c1.4-0.1,2.7,0.4,3.7,1.4C234.6,247.5,235.1,248.9,235,250.4z M226.8,250.4
			c-0.1,1.1,0.2,2.1,0.8,3c1.2,1.3,3.3,1.4,4.6,0.1l0.1-0.1c0.6-0.9,0.9-1.9,0.8-3c0.1-1.1-0.2-2.1-0.8-3c-0.6-0.7-1.5-1.1-2.4-1
			c-0.9-0.1-1.8,0.3-2.4,1C227,248.3,226.8,249.4,226.8,250.4L226.8,250.4z"/>
		<path class="st2" d="M241.2,249h-2v6.8h-1.7V249h-1.3v-0.8l1.3-0.5v-0.5c-0.1-0.8,0.2-1.5,0.7-2.1c0.6-0.5,1.3-0.8,2.1-0.7
			c0.6,0,1.2,0.1,1.8,0.3l-0.5,1.3c-0.4-0.1-0.8-0.2-1.2-0.2c-0.3,0-0.7,0.1-0.9,0.4c-0.2,0.3-0.3,0.7-0.3,1.1v0.5h2L241.2,249z
			 M246.7,249h-2v6.8H243V249h-1.3v-0.8l1.3-0.5v-0.5c-0.1-0.8,0.2-1.5,0.7-2.1c0.6-0.5,1.3-0.8,2.1-0.7c0.6,0,1.2,0.1,1.8,0.3
			l-0.4,1.3c-0.4-0.1-0.8-0.2-1.2-0.2c-0.3,0-0.6,0.1-0.9,0.4c-0.2,0.3-0.3,0.7-0.3,1.1v0.5h2L246.7,249z"/>
		<path class="st2" d="M262,255.8h-1.9l-1.8-6.4c-0.1-0.3-0.2-0.7-0.3-1.2c-0.1-0.4-0.2-0.7-0.2-1.1c0,0.3-0.1,0.7-0.2,1.2
			s-0.2,0.9-0.3,1.1l-1.8,6.4h-1.9l-1.4-5.4l-1.4-5.4h1.8l1.5,6.2c0.2,1,0.4,1.9,0.5,2.6c0-0.4,0.1-0.9,0.2-1.4s0.2-0.9,0.3-1.2
			l1.7-6.3h1.7l1.8,6.3c0.2,0.9,0.4,1.7,0.6,2.6c0.1-0.9,0.3-1.8,0.5-2.7l1.5-6.2h1.8L262,255.8z"/>
		<path class="st2" d="M273.2,255.8h-1.7v-5c0-0.5-0.1-1-0.4-1.4c-0.3-0.3-0.8-0.5-1.2-0.5c-0.6-0.1-1.2,0.2-1.6,0.6
			c-0.4,0.6-0.6,1.4-0.5,2.2v4h-1.7v-11.4h1.7v2.9c0,0.5,0,1-0.1,1.5h0.1c0.2-0.4,0.6-0.7,1-0.9c0.5-0.2,1-0.3,1.5-0.3
			c2,0,2.9,1,2.9,3L273.2,255.8z"/>
		<path class="st2" d="M275.5,245.5c0-0.3,0.1-0.5,0.3-0.7c0.2-0.2,0.5-0.3,0.7-0.2c0.5-0.1,0.9,0.3,1,0.7c0,0.1,0,0.2,0,0.2
			c0,0.3-0.1,0.5-0.3,0.7c-0.2,0.2-0.4,0.3-0.7,0.3c-0.3,0-0.5-0.1-0.7-0.3C275.6,246,275.5,245.8,275.5,245.5z M277.4,255.8h-1.7
			v-8.1h1.7V255.8z"/>
		<path class="st2" d="M282.8,254.5c0.4,0,0.9-0.1,1.3-0.2v1.3c-0.2,0.1-0.5,0.2-0.7,0.2c-0.3,0.1-0.6,0.1-0.9,0.1
			c-1.6,0-2.5-0.9-2.5-2.6V249h-1.1v-0.8l1.2-0.6l0.6-1.7h1.1v1.8h2.3v1.3h-2.3v4.3c0,0.3,0.1,0.7,0.3,0.9
			C282.2,254.5,282.5,254.6,282.8,254.5z"/>
		<path class="st2" d="M289.3,255.9c-1.1,0.1-2.2-0.3-3-1.1c-0.7-0.8-1.1-1.9-1.1-3c-0.1-1.1,0.3-2.2,1-3.1c0.7-0.8,1.7-1.2,2.7-1.1
			c0.9,0,1.9,0.3,2.5,1c0.7,0.7,1,1.7,0.9,2.7v0.9H287c0,0.7,0.2,1.3,0.6,1.8c0.4,0.4,1.1,0.7,1.7,0.6c0.5,0,0.9,0,1.3-0.1
			c0.5-0.1,0.9-0.3,1.3-0.5v1.4c-0.4,0.2-0.8,0.3-1.3,0.4C290.2,255.9,289.7,255.9,289.3,255.9z M288.9,248.8c-0.5,0-1,0.2-1.3,0.5
			c-0.4,0.4-0.6,1-0.6,1.5h3.7c0-0.5-0.1-1.1-0.5-1.5C289.9,249,289.4,248.8,288.9,248.8z"/>
		<path class="st2" d="M305.1,255.8l-1.1-3h-4.1l-1,3H297l4-10.8h1.9l4,10.8H305.1z M303.5,251.3l-1-2.9c-0.1-0.2-0.2-0.5-0.3-0.9
			s-0.2-0.7-0.3-0.9c-0.1,0.7-0.3,1.3-0.6,2l-1,2.8L303.5,251.3z"/>
		<path class="st2" d="M307,258.8c-0.4,0-0.8,0-1.2-0.2v-1.5c0.3,0.1,0.7,0.2,1.1,0.2c1,0,1.4-0.6,1.4-1.8v-10.4h1.8v10.3
			c0.1,0.9-0.2,1.8-0.8,2.5C308.7,258.5,307.9,258.8,307,258.8z"/>
		<path class="st2" d="M317.1,255.8h-1.7v-6.9c0-0.8,0-1.5,0.1-2c-0.1,0.1-0.3,0.3-0.4,0.4l-1.6,1.4l-0.9-1.1l3.1-2.5h1.4V255.8z"/>
		<path class="st2" d="M184.5,282h-2l-3.4-4.9l-1,0.9v4h-1.8v-10.7h1.8v5.1c0.5-0.6,1-1.1,1.4-1.7l2.9-3.4h2c-1.9,2.2-3.2,3.8-4,4.7
			L184.5,282z"/>
		<path class="st2" d="M185.6,271.8c0-0.3,0.1-0.5,0.3-0.7c0.4-0.4,1-0.4,1.4,0s0.4,1,0,1.4s-1,0.4-1.4,0l0,0
			C185.7,272.3,185.6,272,185.6,271.8z M187.4,282h-1.7v-8.1h1.7V282z"/>
		<path class="st2" d="M192.9,280.8c0.4,0,0.9-0.1,1.3-0.2v1.3c-0.2,0.1-0.5,0.2-0.7,0.2c-0.3,0.1-0.6,0.1-0.9,0.1
			c-1.6,0-2.4-0.9-2.4-2.6v-4.4H189v-0.8l1.2-0.6l0.6-1.7h1.1v1.8h2.3v1.3h-2.3v4.3c0,0.3,0.1,0.7,0.3,0.9
			C192.4,280.7,192.6,280.8,192.9,280.8z"/>
		<path class="st2" d="M202.9,282h-1.7v-5c0-0.5-0.1-1-0.4-1.4c-0.3-0.3-0.8-0.5-1.2-0.5c-0.6-0.1-1.2,0.2-1.6,0.6
			c-0.4,0.7-0.6,1.4-0.5,2.2v4h-1.7v-11.4h1.7v2.9c0,0.5,0,1-0.1,1.5h0.1c0.2-0.4,0.6-0.7,1-0.9c0.5-0.2,1-0.3,1.5-0.3
			c2,0,2.9,1,2.9,3V282z"/>
		<line class="st3" x1="114.9" y1="264" x2="147.4" y2="231.5"/>
		<line class="st3" x1="114.9" y1="264.3" x2="101.7" y2="251"/>
	</g>
</g>
</svg>
